<?xml version="1.0" encoding="iso-8859-1"?>
<!-- Generator: Adobe Illustrator 19.0.0, SVG Export Plug-In . SVG Version: 6.00 Build 0)  -->
<svg version="1.1" id="Layer_1" xmlns="http://www.w3.org/2000/svg" xmlns:xlink="http://www.w3.org/1999/xlink" x="0px" y="0px"
	 viewBox="0 0 512 512" style="enable-background:new 0 0 512 512;" xml:space="preserve">
<g>
	<g>
		<path style="fill:#FBD971;" d="M389.566,274.423c-70.497,7.424-102.956-45.93-107.591-77.003
			c-4.643-31.073-25.971-29.678-25.971-29.678s-21.336-1.395-25.971,29.678c-4.643,31.073-37.102,84.427-107.599,77.003
			c-54.625-5.747-79.395-25.777-91.904-61.449c-2.648,13.948-4.087,28.319-4.087,43.026c0,126.764,102.753,229.517,229.517,229.517
			c126.755,0,229.517-102.753,229.517-229.517c0-14.654-1.43-28.972-4.061-42.867C468.89,248.708,444.111,268.685,389.566,274.423"
			/>
		<path style="fill:#FBD971;" d="M228.168,127.929c8.986,2.904,18.388,4.405,27.833,4.405c9.445,0,18.847-1.501,27.833-4.405
			c59.039-19.112,109.639-22.042,148.092-19.235C389.828,58.456,326.64,26.483,255.958,26.483s-133.87,31.974-175.978,82.22
			C118.45,105.878,169.085,108.809,228.168,127.929"/>
	</g>
	<path style="fill:#C03A2B;" d="M150.069,344.276c20.71,16.578,77.047,26.483,105.887,26.483s85.266-9.905,105.975-26.483h-0.044
		c-21.372,36.908-60.213,61.793-105.931,61.793s-84.551-24.885-105.931-61.793H150.069z"/>
	<path style="fill:#2C3E50;" d="M256,132.337L256,132.337c-9.446,0-18.847-1.501-27.833-4.405C91.56,83.715,0,126.016,0,126.016
		v29.678c18.547,0.468,22.263,22.263,22.263,22.263c8.81,57.971,29.678,89.044,100.175,96.468
		c70.488,7.415,102.956-45.93,107.591-77.003S256,167.736,256,167.736s21.336-1.386,25.971,29.687
		c4.634,31.073,37.102,84.418,107.591,77.003c70.497-7.424,91.366-38.497,100.175-96.468c0,0,3.716-21.795,22.263-22.263v-29.678
		c0,0-91.56-42.302-228.167,1.916C274.847,130.836,265.446,132.337,256,132.337"/>
	<path style="fill:#546777;" d="M70.621,185.381c-2.26,0-4.52-0.865-6.241-2.586c-3.452-3.452-3.452-9.031,0-12.482l26.483-26.483
		c3.452-3.452,9.031-3.452,12.482,0s3.452,9.031,0,12.482l-26.483,26.483C75.14,184.516,72.881,185.381,70.621,185.381"/>
</g>
<g>
</g>
<g>
</g>
<g>
</g>
<g>
</g>
<g>
</g>
<g>
</g>
<g>
</g>
<g>
</g>
<g>
</g>
<g>
</g>
<g>
</g>
<g>
</g>
<g>
</g>
<g>
</g>
<g>
</g>
</svg>
