<?xml version="1.0" encoding="iso-8859-1"?>
<!-- Generator: Adobe Illustrator 18.0.0, SVG Export Plug-In . SVG Version: 6.00 Build 0)  -->
<!DOCTYPE svg PUBLIC "-//W3C//DTD SVG 1.1//EN" "http://www.w3.org/Graphics/SVG/1.1/DTD/svg11.dtd">
<svg version="1.1" id="Capa_1" xmlns="http://www.w3.org/2000/svg" xmlns:xlink="http://www.w3.org/1999/xlink" x="0px" y="0px"
	 viewBox="0 0 168.492 168.492" style="enable-background:new 0 0 168.492 168.492;" xml:space="preserve">
<g>
	<path style="fill:#8562A4;" d="M168.492,154.222c0,7.883-6.388,14.271-14.271,14.271H14.271C6.389,168.492,0,162.105,0,154.222
		V14.271C0,6.389,6.389,0,14.271,0h139.951c7.883,0,14.271,6.389,14.271,14.271V154.222z"/>
	<g>
		<g>
			<circle style="fill:#F6921E;" cx="84.245" cy="84.248" r="35.755"/>
			<path style="fill:#FAAF3B;" d="M104.123,131.074l2.912,2.041l0.309-3.546l12.829,5.979l-1.235-14.095l3.432,0.92l-0.919-3.437
				l14.102,1.232l-5.979-12.824l3.54-0.31l-2.042-2.915l13.67-3.665l-10.006-10.009l3.224-1.499l-2.914-2.041l11.593-8.121
				l-12.825-5.979l2.515-2.515l-3.438-0.919l8.116-11.598l-14.097-1.232l1.502-3.222l-3.543,0.309l3.663-13.671l-13.671,3.662
				l0.311-3.54l-3.224,1.503l-1.234-14.104L99.12,35.601l-0.917-3.434l-2.519,2.514l-5.979-12.826l-8.119,11.595l-2.039-2.913
				l-1.503,3.222L68.036,23.75l-3.664,13.674l-2.912-2.043l-0.31,3.545l-12.829-5.984l1.234,14.104l-3.435-0.92l0.921,3.434
				L32.94,48.324l5.982,12.829l-3.544,0.31l2.042,2.912l-13.673,3.662l10.009,10.009l-3.224,1.503l2.913,2.04l-11.593,8.122
				l12.829,5.98l-2.515,2.515l3.435,0.919l-8.119,11.595l14.099,1.232l-1.502,3.222l3.544-0.31l-3.662,13.674l13.669-3.665
				l-0.311,3.543l3.225-1.505l1.235,14.103l11.592-8.116l0.919,3.431l2.518-2.514l5.982,12.829l8.115-11.595l2.038,2.913
				l1.504-3.227l10.012,10.009L104.123,131.074z M57.021,107.086l-3.549-5.067l-2.619-5.622l-1.602-5.976l-0.541-6.179l0.539-6.165
				l1.605-5.99l2.614-5.607l3.557-5.078l4.376-4.376l5.082-3.557l5.605-2.614l5.994-1.608l6.159-0.537l6.182,0.54l5.972,1.603
				l5.625,2.62l5.068,3.551l4.384,4.385l3.551,5.072l2.62,5.613l1.603,5.984l0.538,6.171l-0.541,6.17l-1.603,5.987l-2.618,5.613
				l-3.55,5.072l-4.383,4.382l-5.074,3.554l-5.613,2.617l-5.989,1.603l-6.162,0.538l-6.181-0.541l-5.972-1.6l-5.623-2.62
				l-5.071-3.554L57.021,107.086z"/>
		</g>
	</g>
</g>
<g>
</g>
<g>
</g>
<g>
</g>
<g>
</g>
<g>
</g>
<g>
</g>
<g>
</g>
<g>
</g>
<g>
</g>
<g>
</g>
<g>
</g>
<g>
</g>
<g>
</g>
<g>
</g>
<g>
</g>
</svg>
